<?xml version="1.0" encoding="iso-8859-1"?>
<!-- Uploaded to: SVG Repo, www.svgrepo.com, Generator: SVG Repo Mixer Tools -->
<svg fill="#000000" height="800px" width="800px" version="1.1" id="Capa_1" xmlns="http://www.w3.org/2000/svg" xmlns:xlink="http://www.w3.org/1999/xlink" 
	 viewBox="0 0 270 270" xml:space="preserve">
<path color-rendering="auto" image-rendering="auto" shape-rendering="auto" color-interpolation="sRGB" d="M135,0
	C60.501,0,0,60.501,0,135s60.501,135,135,135s135-60.501,135-135S209.499,0,135,0L135,0z M135,10c69.095,0,125,55.905,125,125
	s-55.905,125-125,125S10,204.095,10,135S65.905,10,135,10L135,10z M135,20C71.547,20,20,71.547,20,135s51.547,115,115,115
	s115-51.547,115-115S198.454,20,135,20z M130,30.121V85c-0.039,2.759,2.165,5.028,4.924,5.07c2.819,0.043,5.116-2.252,5.076-5.07
	V30.121c54.064,2.527,97.353,45.815,99.881,99.879H185c-6.762-0.096-6.762,10.096,0,10h54.881
	c-2.527,54.064-45.817,97.352-99.881,99.879V185c0.04-2.819-2.257-5.113-5.076-5.07c-2.759,0.042-4.963,2.311-4.924,5.07v54.879
	C75.936,237.352,32.648,194.064,30.121,140H85c6.762,0.096,6.762-10.096,0-10H30.121C32.648,75.937,75.936,32.649,130,30.121z"/>
</svg>