<?xml version="1.0" encoding="utf-8"?>
<svg viewBox="388.148 147.2905 57.4302 68.0005" width="57.43" height="68.001" xmlns="http://www.w3.org/2000/svg">
  <path d="M 388.148 198.135 L 388.148 167.887 C 388.148 167.049 389.048 166.527 389.769 166.944 L 415.784 182.067 C 416.453 182.456 416.864 183.174 416.864 183.95 L 416.864 214.198 C 416.864 215.036 415.965 215.558 415.244 215.141 L 389.229 200.021 C 388.56 199.632 388.148 198.913 388.148 198.137 L 388.148 198.135 Z" fill="#6359FF" transform="matrix(0.9999999999999999, 0, 0, 0.9999999999999999, 0.000002000000222324161, -0.000004000000444648322)"/>
  <path d="M 391.525 162.471 L 417.134 147.583 C 417.803 147.193 418.626 147.193 419.294 147.583 L 444.904 162.471 C 445.803 162.995 445.803 164.302 444.904 164.826 L 419.294 179.714 C 418.626 180.103 417.803 180.103 417.134 179.714 L 391.525 164.826 C 390.626 164.302 390.626 162.995 391.525 162.471 Z" fill="#FFC806" transform="matrix(0.9999999999999999, 0, 0, 0.9999999999999999, 0.000002000000222324161, -0.000004000000444648322)"/>
  <path d="M 419.564 214.2 L 419.564 186.15 C 419.564 185.312 420.464 184.791 421.185 185.207 L 444.903 198.998 C 445.803 199.522 445.803 200.829 444.903 201.353 L 421.185 215.143 C 420.464 215.563 419.564 215.039 419.564 214.2 Z" fill="#0BBFBF" transform="matrix(0.9999999999999999, 0, 0, 0.9999999999999999, 0.000002000000222324161, -0.000004000000444648322)"/>
</svg>