<?xml version="1.0" encoding="utf-8"?>
<svg viewBox="153.5482 -21.0066 255.11 360.088" width="255.11" height="360.088" xmlns="http://www.w3.org/2000/svg">
  <path d="M 204.135 349.394 L 99.953 320.472 L 76.736 60.072 L 331.846 60.072 L 308.605 320.432 L 204.135 349.394 Z" fill="#264DE4" transform="matrix(0.9999999999999999, 0, 0, 0.9999999999999999, 76.81220746040343, -10.312613487243667)"/>
  <path d="M 288.708 303.853 L 308.569 81.364 L 204.291 81.364 L 204.291 327.256 L 288.708 303.853 Z" fill="#2965F1" transform="matrix(0.9999999999999999, 0, 0, 0.9999999999999999, 76.81220746040343, -10.312613487243667)"/>
  <path d="M 129.96 177.942 L 132.822 209.879 L 204.291 209.879 L 204.291 177.942 L 129.96 177.942 Z" fill="#EBEBEB" transform="matrix(0.9999999999999999, 0, 0, 0.9999999999999999, 76.81220746040343, -10.312613487243667)"/>
  <path d="M 124.208 113.301 L 127.111 145.238 L 204.291 145.238 L 204.291 113.301 L 124.208 113.301 Z" fill="#EBEBEB" transform="matrix(0.9999999999999999, 0, 0, 0.9999999999999999, 76.81220746040343, -10.312613487243667)"/>
  <path d="M 204.291 260.886 L 204.151 260.924 L 168.583 251.319 L 166.309 225.848 L 134.249 225.848 L 138.723 275.994 L 204.144 294.155 L 204.291 294.114 L 204.291 260.886 Z" fill="#EBEBEB" transform="matrix(0.9999999999999999, 0, 0, 0.9999999999999999, 76.81220746040343, -10.312613487243667)"/>
  <path d="M 136.775 -10.694 L 175.456 -10.694 L 175.456 5.482 L 152.95 5.482 L 152.95 21.658 L 175.456 21.658 L 175.456 37.834 L 136.775 37.834 L 136.775 -10.694 Z" style="fill: rgb(164, 164, 164);" transform="matrix(0.9999999999999999, 0, 0, 0.9999999999999999, 76.81220746040343, -10.312613487243667)"/>
  <path d="M 183.192 -10.694 L 221.874 -10.694 L 221.874 3.372 L 199.368 3.372 L 199.368 6.185 L 221.874 6.185 L 221.874 38.537 L 183.192 38.537 L 183.192 23.768 L 205.698 23.768 L 205.698 20.955 L 183.192 20.955 L 183.192 -10.694 Z" style="fill: rgb(164, 164, 164);" transform="matrix(0.9999999999999999, 0, 0, 0.9999999999999999, 76.81220746040343, -10.312613487243667)"/>
  <path d="M 229.61 -10.694 L 268.291 -10.694 L 268.291 3.372 L 245.786 3.372 L 245.786 6.185 L 268.291 6.185 L 268.291 38.537 L 229.61 38.537 L 229.61 23.768 L 252.115 23.768 L 252.115 20.955 L 229.61 20.955 L 229.61 -10.694 Z" style="fill: rgb(164, 164, 164);" transform="matrix(0.9999999999999999, 0, 0, 0.9999999999999999, 76.81220746040343, -10.312613487243667)"/>
  <path d="M 278.418 177.942 L 284.183 113.301 L 204.181 113.301 L 204.181 145.238 L 249.183 145.238 L 246.277 177.942 L 204.181 177.942 L 204.181 209.879 L 243.508 209.879 L 239.801 251.299 L 204.181 260.913 L 204.181 294.14 L 269.653 275.994 L 270.134 270.598 L 277.639 186.518 L 278.418 177.942 Z" fill="#FFFFFF" transform="matrix(0.9999999999999999, 0, 0, 0.9999999999999999, 76.81220746040343, -10.312613487243667)"/>
</svg>