<?xml version="1.0" encoding="utf-8"?>
<svg viewBox="129.3861 121.3001 109.8 105.8" width="109.8" height="105.8" xmlns="http://www.w3.org/2000/svg">
  <path d="M 114.445 186.473 L 133.876 186.473 L 127.855 208.501 L 114.445 208.501 L 114.445 186.473 Z M 114.445 144.584 L 145.323 144.584 L 139.303 166.618 L 114.445 166.618 L 114.445 144.584 Z M 114.445 102.701 L 156.77 102.701 L 150.75 124.736 L 114.445 124.736 L 114.445 102.701 Z M 175.928 102.701 L 224.239 102.701 L 224.239 124.736 L 169.903 124.736 L 175.928 102.701 Z M 164.481 144.584 L 224.245 144.584 L 224.245 166.618 L 158.463 166.618 L 164.481 144.584 Z M 153.035 186.473 L 224.245 186.473 L 224.245 208.501 L 147.015 208.501 L 153.035 186.473 Z" fill="#ef5350" stroke-width=".94502" transform="matrix(0.9999999999999999, 0, 0, 0.9999999999999999, 14.941105842590332, 18.59911346435547)"/>
</svg>