<?xml version="1.0" encoding="UTF-8"?>
<!DOCTYPE svg PUBLIC "-//W3C//DTD SVG 1.1//EN" "http://www.w3.org/Graphics/SVG/1.1/DTD/svg11.dtd">
<svg xmlns="http://www.w3.org/2000/svg" version="1.1" width="600px" height="600px" style="shape-rendering:geometricPrecision; text-rendering:geometricPrecision; image-rendering:optimizeQuality; fill-rule:evenodd; clip-rule:evenodd" xmlns:xlink="http://www.w3.org/1999/xlink">
<g><path style="opacity:0.997" fill="#f26623" d="M 274.5,-0.5 C 291.167,-0.5 307.833,-0.5 324.5,-0.5C 440.017,13.2228 523.184,72.2228 574,176.5C 587.536,207.982 596.036,240.648 599.5,274.5C 599.5,291.167 599.5,307.833 599.5,324.5C 585.773,440.021 526.773,523.187 422.5,574C 390.78,587.971 357.78,596.471 323.5,599.5C 307.5,599.5 291.5,599.5 275.5,599.5C 159.529,586.126 76.0288,527.126 25,422.5C 11.2387,391.075 2.73868,358.409 -0.5,324.5C -0.5,307.833 -0.5,291.167 -0.5,274.5C 13.2228,158.983 72.2228,75.8159 176.5,25C 207.982,11.4641 240.648,2.9641 274.5,-0.5 Z"/></g>
<g><path style="opacity:1" fill="#fabd97" d="M 129.5,110.5 C 131.5,110.5 133.5,110.5 135.5,110.5C 135.5,116.167 135.5,121.833 135.5,127.5C 121.101,127.605 111.268,134.271 106,147.5C 105,152.167 104,156.833 103,161.5C 102.667,190.833 102.333,220.167 102,249.5C 101.525,270.997 91.6915,286.163 72.5,295C 88.6042,302.332 98.1042,314.832 101,332.5C 102.279,363.47 102.946,394.47 103,425.5C 103.084,437.435 107.25,447.601 115.5,456C 120.312,459.326 125.645,461.159 131.5,461.5C 132.568,462.434 133.901,462.768 135.5,462.5C 135.5,468.167 135.5,473.833 135.5,479.5C 102.404,478.571 84.9039,461.571 83,428.5C 82.9538,397.466 82.2872,366.466 81,335.5C 78.3537,317.465 68.3537,306.132 51,301.5C 50.5008,296.845 50.3342,292.179 50.5,287.5C 67.0646,284.769 76.898,275.103 80,258.5C 80.6667,255.167 81.3333,251.833 82,248.5C 82.3333,218.833 82.6667,189.167 83,159.5C 85.0504,130.285 100.55,113.952 129.5,110.5 Z"/></g>
<g><path style="opacity:1" fill="#f68d57" d="M 129.5,110.5 C 131.607,109.532 133.941,109.198 136.5,109.5C 136.823,115.69 136.49,121.69 135.5,127.5C 135.5,121.833 135.5,116.167 135.5,110.5C 133.5,110.5 131.5,110.5 129.5,110.5 Z"/></g>
<g><path style="opacity:1" fill="#f68f59" d="M 472.5,110.5 C 471.167,110.5 469.833,110.5 468.5,110.5C 468.5,116.167 468.5,121.833 468.5,127.5C 467.51,121.69 467.177,115.69 467.5,109.5C 469.415,109.216 471.081,109.549 472.5,110.5 Z"/></g>
<g><path style="opacity:1" fill="#fabd97" d="M 472.5,110.5 C 502.525,113.025 518.691,129.358 521,159.5C 521.333,189.167 521.667,218.833 522,248.5C 522.914,261.155 527.747,271.989 536.5,281C 541.539,284.854 547.205,287.021 553.5,287.5C 553.5,292.167 553.5,296.833 553.5,301.5C 538.804,304.358 529.304,313.025 525,327.5C 523.683,332.1 522.683,336.766 522,341.5C 521.667,370.5 521.333,399.5 521,428.5C 519.111,461.555 501.611,478.555 468.5,479.5C 468.211,473.409 468.545,467.409 469.5,461.5C 482.282,461.532 491.449,455.866 497,444.5C 498.965,438.639 500.298,432.639 501,426.5C 501.062,395.14 501.729,363.806 503,332.5C 505.896,314.832 515.396,302.332 531.5,295C 512.634,286.417 502.801,271.583 502,250.5C 501.667,220.5 501.333,190.5 501,160.5C 499.999,139.666 489.166,128.666 468.5,127.5C 468.5,121.833 468.5,116.167 468.5,110.5C 469.833,110.5 471.167,110.5 472.5,110.5 Z"/></g>
<g><path style="opacity:1" fill="#fffdfd" d="M 357.5,120.5 C 374.301,119.862 390.968,121.028 407.5,124C 410.558,125.015 413.558,126.181 416.5,127.5C 417.666,140.154 417.833,152.82 417,165.5C 397.815,153.528 377.315,150.361 355.5,156C 341.219,165.606 340.886,175.939 354.5,187C 369.346,194.59 384.346,201.923 399.5,209C 424.988,225.124 432.822,247.624 423,276.5C 416.949,290.217 406.782,299.384 392.5,304C 368.03,310.596 343.364,311.262 318.5,306C 312.715,304.523 307.215,302.356 302,299.5C 301.333,286.167 301.333,272.833 302,259.5C 322.332,276.292 345.166,281.126 370.5,274C 382.186,269.13 385.352,260.963 380,249.5C 373.95,242.784 366.784,237.617 358.5,234C 342.154,228.665 327.487,220.498 314.5,209.5C 299.554,192.19 296.387,172.856 305,151.5C 311.334,140.166 320.501,131.999 332.5,127C 340.75,124.022 349.084,121.855 357.5,120.5 Z"/></g>
<g><path style="opacity:1" fill="#f8b290" d="M 275.5,157.5 C 275.5,146.5 275.5,135.5 275.5,124.5C 240.833,124.5 206.167,124.5 171.5,124.5C 171.5,185.167 171.5,245.833 171.5,306.5C 170.501,245.669 170.168,184.669 170.5,123.5C 205.833,123.5 241.167,123.5 276.5,123.5C 276.828,135.012 276.495,146.346 275.5,157.5 Z"/></g>
<g><path style="opacity:1" fill="#fffdfd" d="M 275.5,157.5 C 254.5,157.5 233.5,157.5 212.5,157.5C 212.5,170.833 212.5,184.167 212.5,197.5C 232.167,197.5 251.833,197.5 271.5,197.5C 271.5,208.833 271.5,220.167 271.5,231.5C 251.833,231.5 232.167,231.5 212.5,231.5C 212.5,245.167 212.5,258.833 212.5,272.5C 235.167,272.5 257.833,272.5 280.5,272.5C 280.5,283.833 280.5,295.167 280.5,306.5C 244.167,306.5 207.833,306.5 171.5,306.5C 171.5,245.833 171.5,185.167 171.5,124.5C 206.167,124.5 240.833,124.5 275.5,124.5C 275.5,135.5 275.5,146.5 275.5,157.5 Z"/></g>
<g><path style="opacity:1" fill="#fffbfa" d="M 263.5,354.5 C 276.74,354.495 280.407,360.328 274.5,372C 263.136,376.284 257.636,372.45 258,360.5C 260.04,358.63 261.873,356.63 263.5,354.5 Z"/></g>
<g><path style="opacity:1" fill="#fffbfa" d="M 186.5,359.5 C 192.5,359.5 198.5,359.5 204.5,359.5C 204.5,389.833 204.5,420.167 204.5,450.5C 218.167,450.5 231.833,450.5 245.5,450.5C 245.5,455.5 245.5,460.5 245.5,465.5C 225.833,465.5 206.167,465.5 186.5,465.5C 186.5,430.167 186.5,394.833 186.5,359.5 Z"/></g>
<g><path style="opacity:1" fill="#fffdfc" d="M 379.5,403.5 C 379.5,399.167 379.5,394.833 379.5,390.5C 383.702,390.817 387.702,390.483 391.5,389.5C 391.334,383.824 391.501,378.157 392,372.5C 397.114,370.74 402.28,369.073 407.5,367.5C 408.497,374.803 408.831,382.137 408.5,389.5C 414.5,389.5 420.5,389.5 426.5,389.5C 426.5,394.167 426.5,398.833 426.5,403.5C 420.5,403.5 414.5,403.5 408.5,403.5C 408.065,418.891 408.565,434.225 410,449.5C 414.748,454.044 420.081,454.71 426,451.5C 426.799,456.087 426.632,460.587 425.5,465C 416.691,467.285 408.024,466.952 399.5,464C 396.567,461.736 394.4,458.902 393,455.5C 391.556,438.223 391.056,420.889 391.5,403.5C 387.5,403.5 383.5,403.5 379.5,403.5 Z"/></g>
<g><path style="opacity:1" fill="#fffcfa" d="M 333.5,388.5 C 351.903,386.417 362.736,394.417 366,412.5C 366.5,430.164 366.667,447.83 366.5,465.5C 360.5,465.5 354.5,465.5 348.5,465.5C 348.931,447.453 348.431,429.453 347,411.5C 344.681,404.848 340.014,401.848 333,402.5C 324.069,403.09 318.402,407.757 316,416.5C 315.5,433.163 315.333,449.83 315.5,466.5C 309.833,466.5 304.167,466.5 298.5,466.5C 298.5,441.167 298.5,415.833 298.5,390.5C 304.167,390.5 309.833,390.5 315.5,390.5C 315.334,394.514 315.501,398.514 316,402.5C 320.311,395.782 326.144,391.115 333.5,388.5 Z"/></g>
<g><path style="opacity:1" fill="#f8b290" d="M 275.5,465.5 C 275.5,440.5 275.5,415.5 275.5,390.5C 270.167,390.5 264.833,390.5 259.5,390.5C 259.5,415.5 259.5,440.5 259.5,465.5C 258.502,440.339 258.169,415.005 258.5,389.5C 264.5,389.5 270.5,389.5 276.5,389.5C 276.831,415.005 276.498,440.339 275.5,465.5 Z"/></g>
<g><path style="opacity:1" fill="#fefffe" d="M 275.5,465.5 C 270.167,465.5 264.833,465.5 259.5,465.5C 259.5,440.5 259.5,415.5 259.5,390.5C 264.833,390.5 270.167,390.5 275.5,390.5C 275.5,415.5 275.5,440.5 275.5,465.5 Z"/></g>
<g><path style="opacity:1" fill="#f8b08d" d="M 391.5,389.5 C 387.702,390.483 383.702,390.817 379.5,390.5C 379.5,394.833 379.5,399.167 379.5,403.5C 378.514,399.03 378.181,394.363 378.5,389.5C 382.833,389.5 387.167,389.5 391.5,389.5 Z"/></g>
<g><path style="opacity:1" fill="#f7935e" d="M 131.5,461.5 C 133.167,461.5 134.833,461.5 136.5,461.5C 136.823,467.69 136.49,473.69 135.5,479.5C 135.5,473.833 135.5,468.167 135.5,462.5C 133.901,462.768 132.568,462.434 131.5,461.5 Z"/></g>
<g><path style="opacity:1" fill="#f6915c" d="M 469.5,461.5 C 468.545,467.409 468.211,473.409 468.5,479.5C 467.835,476.686 467.502,473.686 467.5,470.5C 467.517,467.087 468.184,464.087 469.5,461.5 Z"/></g>
<g><path style="opacity:1" fill="#be4f37" d="M 199.5,482.5 C 201.989,482.298 204.323,482.798 206.5,484C 209.713,487.549 213.213,490.716 217,493.5C 220.787,490.716 224.287,487.549 227.5,484C 230.5,482 233.5,482 236.5,484C 239.713,487.549 243.213,490.716 247,493.5C 250.787,490.716 254.287,487.549 257.5,484C 260.5,482 263.5,482 266.5,484C 269.713,487.549 273.213,490.716 277,493.5C 280.787,490.716 284.287,487.549 287.5,484C 290.5,482 293.5,482 296.5,484C 299.713,487.549 303.213,490.716 307,493.5C 310.787,490.716 314.287,487.549 317.5,484C 320.5,482 323.5,482 326.5,484C 329.713,487.549 333.213,490.716 337,493.5C 340.787,490.716 344.287,487.549 347.5,484C 350.5,482 353.5,482 356.5,484C 359.713,487.549 363.213,490.716 367,493.5C 370.787,490.716 374.287,487.549 377.5,484C 379.695,482.627 382.029,482.294 384.5,483C 388.678,486.513 392.845,490.013 397,493.5C 400.787,490.716 404.287,487.549 407.5,484C 410.5,482 413.5,482 416.5,484C 420.533,488.368 424.866,492.368 429.5,496C 435.178,500.21 435.845,505.043 431.5,510.5C 428.897,511.562 426.23,511.728 423.5,511C 419.367,507.869 415.534,504.369 412,500.5C 407.869,505.475 403.035,509.475 397.5,512.5C 391.36,509.872 386.193,505.872 382,500.5C 377.869,505.475 373.035,509.475 367.5,512.5C 361.36,509.872 356.193,505.872 352,500.5C 347.869,505.475 343.035,509.475 337.5,512.5C 331.36,509.872 326.193,505.872 322,500.5C 317.869,505.475 313.035,509.475 307.5,512.5C 301.36,509.872 296.193,505.872 292,500.5C 287.869,505.475 283.035,509.475 277.5,512.5C 271.36,509.872 266.193,505.872 262,500.5C 257.869,505.475 253.035,509.475 247.5,512.5C 241.36,509.872 236.193,505.872 232,500.5C 227.869,505.475 223.035,509.475 217.5,512.5C 211.36,509.872 206.193,505.872 202,500.5C 198.5,504 195,507.5 191.5,511C 182.667,512.833 179.167,509.333 181,500.5C 187.062,494.27 193.229,488.27 199.5,482.5 Z"/></g>
</svg>
