<?xml version="1.0" encoding="utf-8"?>
<svg viewBox="49.8648 17.3788 255.5028 205.5147" width="255.503" height="205.515" xmlns="http://www.w3.org/2000/svg">
  <path d="M 197.022 55.418 L 204.808 55.418 L 226.999 33.227 L 228.089 23.805 C 172.677 -25.104 85.175 1.138 65.823 72.47 C 68.295 71.456 71.034 71.292 73.609 72.003 L 117.991 64.683 C 117.991 64.683 120.249 60.946 121.417 61.18 C 141.159 39.498 174.384 36.971 197.178 55.418 L 197.022 55.418 Z" style="fill:#f44336" transform="matrix(0.9999999999999999, 0, 0, 0.9999999999999999, 14.941105842590332, 18.59911346435547)"/>
  <path d="M 258.612 72.47 C 253.511 53.686 243.038 36.8 228.479 23.883 L 197.334 55.028 C 210.485 65.774 217.976 81.963 217.656 98.943 L 217.656 104.471 C 238.994 104.471 252.331 127.571 241.661 146.05 C 236.71 154.627 227.559 159.91 217.656 159.91 L 162.217 159.91 L 156.689 165.516 L 156.689 198.763 L 162.217 204.292 L 217.656 204.292 C 273.158 204.724 308.314 144.911 280.937 96.629 C 275.457 86.963 267.816 78.695 258.612 72.47 L 258.612 72.47 Z" style="fill:#448aff" transform="matrix(0.9999999999999999, 0, 0, 0.9999999999999999, 14.941105842590332, 18.59911346435547)"/>
  <path d="M 106.701 203.98 L 162.14 203.98 L 162.14 159.598 L 106.701 159.598 C 102.751 159.598 98.848 158.748 95.255 157.107 L 87.469 159.521 L 65.122 181.711 L 63.176 189.498 C 75.707 198.961 90.998 204.048 106.701 203.98 L 106.701 203.98 Z" style="fill:#43a047" transform="matrix(0.9999999999999999, 0, 0, 0.9999999999999999, 14.941105842590332, 18.59911346435547)"/>
  <path d="M 106.701 60.012 C 51.199 60.343 16.868 120.634 44.907 168.534 C 49.603 176.557 55.807 183.597 63.176 189.264 L 95.333 157.107 C 75.887 148.321 73.244 121.78 90.576 109.332 C 104.793 99.121 124.799 104.481 132.007 120.433 L 164.164 88.276 C 150.482 70.389 129.221 59.931 106.701 60.012 L 106.701 60.012 Z" style="fill:#ffc107" transform="matrix(0.9999999999999999, 0, 0, 0.9999999999999999, 14.941105842590332, 18.59911346435547)"/>
</svg>