<?xml version="1.0" encoding="utf-8"?>
<svg viewBox="0 0 24 24" xmlns="http://www.w3.org/2000/svg">
  <path d="M 24 0 L 21.814 21.597 L 11.985 24 L 2.184 21.601 L 0 0 L 24 0 Z" fill="#E44D26"/>
  <path d="M 12 22.164 L 19.942 20.222 L 21.81 1.766 L 12 1.766 L 12 22.164 Z" fill="#F16529"/>
  <path d="M 7.75 7.065 L 12 7.065 L 12 4.415 L 4.466 4.415 L 4.538 5.126 L 5.276 12.427 L 12 12.427 L 12 9.778 L 8.024 9.778 L 7.75 7.065 Z" fill="#EBEBEB"/>
  <path d="M 8.427 13.752 L 5.411 13.752 L 5.832 17.911 L 11.986 19.418 L 12 19.414 L 12 16.658 L 11.987 16.661 L 8.641 15.864 L 8.427 13.752 Z" fill="#EBEBEB"/>
  <path d="M 11.99 12.427 L 15.689 12.427 L 15.341 15.863 L 11.99 16.66 L 11.99 19.416 L 18.149 17.911 L 18.194 17.464 L 18.9 10.489 L 18.974 9.778 L 11.99 9.778 L 11.99 12.427 Z" fill="#FFFFFF"/>
  <path d="M 11.99 7.058 L 11.99 7.065 L 19.247 7.065 L 19.307 6.469 L 19.444 5.126 L 19.516 4.415 L 11.99 4.415 L 11.99 7.058 Z" fill="#FFFFFF"/>
</svg>