<?xml version="1.0" encoding="utf-8"?>
<svg viewBox="73.5012 20.1932 162 189" width="162" height="189" xmlns="http://www.w3.org/2000/svg">
  <g transform="matrix(0.9000000357627868, 0, 0, 0.9000000357627868, 60.00121021270752, 20.193154573440538)" fill="none" fill-rule="evenodd">
    <rect x="165" y="40" width="20" height="10" rx="5" fill="#56B3B4"/>
    <rect x="15" y="200" width="60" height="10" rx="5" fill="#EA5E5E"/>
    <rect x="135" y="120" width="40" height="10" rx="5" fill="#BF85BF"/>
    <rect x="75" y="120" width="50" height="10" rx="5" fill="#EA5E5E"/>
    <rect x="15" y="120" width="50" height="10" rx="5" fill="#56B3B4"/>
    <rect x="15" y="160" width="60" height="10" rx="5" fill="#BF85BF"/>
    <rect x="15" y="80" width="60" height="10" rx="5" fill="#BF85BF"/>
    <rect x="65" y="20" width="110" height="10" rx="5" fill="#F7BA3E"/>
    <rect x="15" y="20" width="40" height="10" rx="5" fill="#EA5E5E"/>
    <rect x="55" y="180" width="20" height="10" rx="5" fill="#F7BA3E"/>
    <rect x="55" y="60" width="20" height="10" rx="5" fill="#56B3B4"/>
    <rect x="15" y="180" width="30" height="10" rx="5" fill="#56B3B4"/>
    <rect x="15" y="60" width="30" height="10" rx="5" fill="#F7BA3E"/>
    <rect x="95" y="100" width="90" height="10" rx="5" fill="#56B3B4"/>
    <rect x="45" y="100" width="40" height="10" rx="5" fill="#F7BA3E"/>
    <rect x="15" y="100" width="20" height="10" rx="5" fill="#EA5E5E"/>
    <rect x="105" y="40" width="50" height="10" rx="5" fill="#BF85BF"/>
    <rect x="15" y="40" width="80" height="10" rx="5" fill="#56B3B4"/>
    <rect x="45" y="140" width="100" height="10" rx="5" fill="#F7BA3E"/>
    <rect x="15" y="140" width="20" height="10" rx="5" fill="#BF85BF"/>
    <rect x="135" y="60" width="60" height="10" rx="5" fill="#EA5E5E"/>
    <rect x="135" y="80" width="60" height="10" rx="5" fill="#F7BA3E"/>
    <rect x="15" width="130" height="10" rx="5" fill="#56B3B4"/>
  </g>
</svg>