<?xml version="1.0" encoding="utf-8"?>
<svg viewBox="0 0 215 215" xmlns="http://www.w3.org/2000/svg">
  <defs>
    <linearGradient gradientUnits="userSpaceOnUse" x1="87.5" y1="0" x2="87.5" y2="170" id="gradient-1" gradientTransform="matrix(0.70713, 0.707083, -1, 1, 108.125427, -61.870239)">
      <stop offset="0" style="stop-color: rgb(35, 165, 94);"/>
      <stop offset="1" style="stop-color: rgb(0, 42, 10);"/>
      <animateTransform type="rotate" additive="sum" attributeName="gradientTransform" values="1;360" begin="4.96s" dur="2s" fill="freeze" keyTimes="0; 1" repeatCount="indefinite"/>
      <animateTransform type="skewY" additive="sum" attributeName="gradientTransform" values="-180;180" begin="1.57s" dur="2s" fill="freeze" keyTimes="0; 1"/>
    </linearGradient>
    <linearGradient gradientUnits="userSpaceOnUse" x1="138.45" y1="46.658" x2="138.45" y2="216.658" id="gradient-4" gradientTransform="matrix(0.68096, 0.73232, -1.058824, 1, 170.123016, -103.048218)">
      <stop offset="0" style="stop-color: rgb(70, 45, 212);"/>
      <stop offset="1" style="stop-color: rgb(15, 10, 46);"/>
      <animateTransform type="rotate" additive="sum" attributeName="gradientTransform" values="-180;360" begin="1.5s" dur="2s" fill="freeze" repeatCount="indefinite" keyTimes="0; 1"/>
      <animateTransform type="skewX" additive="sum" attributeName="gradientTransform" values="0; 0" begin="12.19s" dur="2s" fill="freeze"/>
    </linearGradient>
  </defs>
  <g transform="matrix(0.9999999999999999, 0, 0, 0.9999999999999999, 0, -1.4210854715202004e-14)">
    <path style="stroke-linejoin: round; fill: url('#gradient-1');" d="M 89.926 90.149 L 170 90 L 170 170 L 25 170 L 0 145 L 0 25 L 30 0 L 140 0 L 175 30 L 40 30 L 30 40 L 30 130 L 40 140 L 140 140 L 140 120 L 90 120 L 89.926 90.149 Z">
      <animateTransform type="translate" additive="sum" attributeName="transform" values="-300 15;0 15;0 0" begin="0s" dur="1.5s" fill="freeze" keyTimes="0; 0.75; 1"/>
    </path>
    <path style="fill: url('#gradient-4');" d="M 45 120 L 45 45 L 190 45 L 215 70 L 215 190 L 185 215 L 65 215 L 35 185 L 175 185 L 185 175 L 185 85 L 175 75 L 75 75 L 75 120 L 45 120 Z">
      <animateTransform type="translate" additive="sum" attributeName="transform" values="300 -15;0 -15;0 0" dur="1.5s" fill="freeze" begin="-0.03s" keyTimes="0; 0.765; 1"/>
    </path>
  </g>
</svg>