<?xml version="1.0" encoding="UTF-8" standalone="no"?>
<!-- Uploaded to: SVG Repo, www.svgrepo.com, Generator: SVG Repo Mixer Tools -->
<svg width="800px" height="800px" viewBox="-8 0 272 272" version="1.1" xmlns="http://www.w3.org/2000/svg" xmlns:xlink="http://www.w3.org/1999/xlink" preserveAspectRatio="xMidYMid">
	<g>
		<path d="M0.0996108949,45.522179 L125.908171,0.697276265 L255.103502,44.7252918 L234.185214,211.175097 L125.908171,271.140856 L19.3245136,211.971984 L0.0996108949,45.522179 Z" fill="#E23237">

</path>
		<path d="M255.103502,44.7252918 L125.908171,0.697276265 L125.908171,271.140856 L234.185214,211.274708 L255.103502,44.7252918 L255.103502,44.7252918 Z" fill="#B52E31">

</path>
		<path d="M126.107393,32.27393 L126.107393,32.27393 L47.7136187,206.692607 L76.9992218,206.194553 L92.7377432,166.848249 L126.207004,166.848249 L126.306615,166.848249 L163.063035,166.848249 L180.29572,206.692607 L208.286381,207.190661 L126.107393,32.27393 L126.107393,32.27393 Z M126.306615,88.155642 L152.803113,143.5393 L127.402335,143.5393 L126.107393,143.5393 L102.997665,143.5393 L126.306615,88.155642 L126.306615,88.155642 Z" fill="#FFFFFF">

</path>
	</g>
        <g stroke="none" stroke-width="1" fill="none" fill-rule="evenodd">
        <path d="M118.431947,187.698037 C151.322003,181.887937 178.48731,177.08008 178.799309,177.013916 L179.366585,176.893612 L148.31513,139.958881 C131.236843,119.644776 117.26369,102.945381 117.26369,102.849118 C117.26369,102.666861 149.32694,14.3716012 149.507189,14.057257 C149.567455,13.952452 171.38747,51.62411 202.400338,105.376064 C231.435152,155.699606 255.372949,197.191547 255.595444,197.580359 L255.999996,198.287301 L157.315912,198.274572 L58.6318456,198.261895 L118.431947,187.698073 L118.431947,187.698037 Z M-4.03864498e-06,176.434723 C-4.03864498e-06,176.382721 14.631291,150.983941 32.5139844,119.992969 L65.0279676,63.6457518 L102.919257,31.8473052 C123.759465,14.3581634 140.866667,0.0274832751 140.935253,0.00062917799 C141.003839,-0.0247829554 140.729691,0.665213042 140.326034,1.53468179 C139.922377,2.40415053 121.407304,42.1170321 99.1814268,89.7855264 L58.7707514,176.455514 L29.3853737,176.492355 C13.2234196,176.512639 -4.03864498e-06,176.486664 -4.03864498e-06,176.434703 L-4.03864498e-06,176.434723 Z" fill="#0089D6" fill-rule="nonzero">

</path>
    </g>
</svg>