<?xml version="1.0" encoding="utf-8"?>
<svg viewBox="0 0 27 27" xmlns="http://www.w3.org/2000/svg">
  <path d="M 13.335 27 L 3.534 24.301 L 1.35 0 L 25.35 0 L 23.164 24.297 L 13.335 27 Z" fill="#264DE4"/>
  <path d="M 20.942 22.934 L 22.81 2.003 L 13 2.003 L 13 25.136 L 20.942 22.934 Z" fill="#2965F1"/>
  <path d="M 6.007 11.089 L 6.276 14.093 L 13 14.093 L 13 11.089 L 6.007 11.089 Z" fill="#EBEBEB"/>
  <path d="M 5.466 5.008 L 5.739 8.012 L 13 8.012 L 13 5.008 L 5.466 5.008 Z" fill="#EBEBEB"/>
  <path d="M 13 18.892 L 12.987 18.896 L 9.641 17.992 L 9.427 15.596 L 6.411 15.596 L 6.832 20.313 L 12.986 22.022 L 13 22.018 L 13 18.892 Z" fill="#EBEBEB"/>
  <path d="M 19.974 11.089 L 20.516 5.008 L 12.99 5.008 L 12.99 8.012 L 17.223 8.012 L 16.95 11.089 L 12.99 11.089 L 12.99 14.093 L 16.689 14.093 L 16.341 17.99 L 12.99 18.895 L 12.99 22.02 L 19.149 20.313 L 19.194 19.806 L 19.9 11.896 L 19.974 11.089 Z" fill="#FFFFFF"/>
</svg>