<?xml version="1.0" encoding="utf-8"?>
<svg viewBox="143.6681 70.4551 64 64" width="64" height="64" xmlns="http://www.w3.org/2000/svg">
  <path data-v-266d6681="" id="path" fill="#00c0b5" d="M 142.005 79.056 C 142.005 73.989 145.988 69.989 151.034 69.989 C 156.079 69.989 160.063 73.989 160.063 79.056 C 160.063 80.923 158.47 82.256 156.876 82.256 C 155.018 82.256 153.69 80.656 153.69 79.056 C 153.69 77.723 152.628 76.656 151.3 76.656 C 149.972 76.656 148.909 77.723 148.909 79.056 C 148.909 80.923 147.316 82.256 145.722 82.256 C 144.13 82.256 142.005 80.923 142.005 79.056 M 179.183 94.256 C 179.183 96.123 177.59 97.456 175.997 97.456 L 145.722 97.456 C 143.864 97.456 142.536 95.856 142.536 94.256 C 142.536 92.389 144.13 91.056 145.722 91.056 L 176.263 91.056 C 177.855 91.056 179.183 92.656 179.183 94.256 M 165.109 80.923 C 164.047 79.323 164.578 77.456 165.906 76.389 L 173.607 71.323 C 175.2 70.256 177.059 70.789 178.121 72.123 C 179.183 73.723 178.652 75.589 177.325 76.656 L 169.623 81.723 C 169.092 81.989 168.295 82.256 167.764 82.256 C 166.702 82.523 165.64 81.989 165.109 80.923 M 185.823 101.189 C 185.823 101.723 185.557 102.523 185.026 102.789 L 179.449 108.389 C 178.918 108.923 178.386 109.189 177.855 109.189 L 143.333 109.189 C 142.802 109.189 142.005 108.923 141.74 108.389 L 136.162 102.789 C 135.631 102.256 135.366 101.723 135.366 101.189 L 135.366 66.523 C 135.366 65.989 135.631 65.189 136.162 64.923 L 141.74 59.323 C 142.005 58.789 142.536 58.523 143.333 58.523 L 177.855 58.523 C 178.386 58.523 179.183 58.789 179.449 59.323 L 185.026 64.923 C 185.557 65.456 185.823 65.989 185.823 66.523 L 185.823 101.189 Z M 190.602 60.923 L 183.167 53.456 C 182.105 52.389 180.777 51.856 179.183 51.856 L 142.005 51.856 C 140.412 51.856 139.084 52.389 137.756 53.723 L 130.586 60.923 C 129.258 62.256 128.727 63.589 128.727 65.189 L 128.727 102.523 C 128.727 104.123 129.258 105.723 130.586 106.789 L 138.021 114.256 C 139.084 115.323 140.412 115.856 142.005 115.856 L 179.183 115.856 C 180.777 115.856 182.37 115.323 183.433 113.989 L 190.868 106.523 C 191.93 105.456 192.727 103.856 192.727 102.256 L 192.727 65.189 C 192.461 63.589 191.93 62.256 190.602 60.923" transform="matrix(0.9999999999999999, 0, 0, 0.9999999999999999, 14.941105842590332, 18.59911346435547)"/>
</svg>