<?xml version="1.0" encoding="utf-8"?>
<svg viewBox="372.9485 95.615 79.1595 78.2" width="79.16" height="78.2" xmlns="http://www.w3.org/2000/svg">
  <path class="st0" d="M 438.898 173.815 L 391.568 173.815 C 389.098 173.815 387.008 172.315 386.148 170.065 C 385.288 167.815 386.048 165.285 387.958 163.785 L 398.508 155.255 L 378.738 155.255 C 376.268 155.255 374.178 153.755 373.318 151.505 C 372.458 149.255 373.128 146.815 375.028 145.225 L 395.458 128.445 C 397.168 127.035 399.638 127.315 401.068 128.915 C 402.498 130.605 402.208 133.045 400.588 134.445 L 384.828 147.465 L 408.298 147.465 L 440.228 121.775 L 386.248 121.775 C 382.728 121.775 379.408 120.365 376.838 117.935 C 374.368 115.495 373.038 112.215 373.038 108.745 C 373.038 105.275 374.368 101.995 376.938 99.465 C 379.408 97.025 382.738 95.615 386.248 95.615 L 432.238 95.615 C 434.708 95.615 436.798 97.115 437.658 99.365 C 438.518 101.615 437.758 104.055 435.848 105.645 L 425.588 113.995 L 446.308 113.995 C 448.778 113.995 450.868 115.495 451.728 117.745 C 452.578 119.995 451.828 122.525 449.928 124.025 L 420.748 147.465 L 438.898 147.465 C 442.418 147.465 445.738 148.875 448.208 151.305 C 450.678 153.745 452.108 157.025 452.108 160.585 L 452.108 160.775 C 452.108 164.245 450.778 167.525 448.208 170.055 C 445.738 172.505 442.408 173.815 438.898 173.815 Z M 397.748 166.035 L 438.898 166.035 C 440.328 166.035 441.658 165.475 442.698 164.535 C 443.738 163.505 444.218 162.195 444.218 160.785 L 444.218 160.595 C 444.218 159.185 443.648 157.875 442.698 156.845 C 441.648 155.815 440.318 155.345 438.898 155.345 L 411.048 155.345 L 397.748 166.035 Z M 386.248 103.395 C 384.818 103.395 383.488 103.955 382.448 104.895 C 381.398 105.925 380.928 107.235 380.928 108.645 C 380.928 110.055 381.498 111.365 382.448 112.395 C 383.498 113.425 384.828 113.895 386.248 113.895 L 413.138 113.895 L 426.158 103.395 L 386.248 103.395 Z" style="fill: rgb(0, 210, 185);" transform="matrix(0.9999999999999999, 0, 0, 0.9999999999999999, 0.000002000000222324161, -0.000004000000444648322)"/>
</svg>