<?xml version="1.0" encoding="utf-8"?>
<svg viewBox="51.8086 18.3051 263.7785 231.705" width="263.779" height="231.705" xmlns="http://www.w3.org/2000/svg">
  <path d="M 116.629 84.031 L 166.727 55.107 C 167.981 54.383 169.526 54.383 170.78 55.107 L 220.88 84.031 C 222.134 84.756 222.906 86.093 222.906 87.541 L 222.906 145.389 C 222.905 146.837 222.133 148.174 220.879 148.899 L 170.78 177.823 C 169.526 178.547 167.981 178.547 166.727 177.823 L 116.629 148.899 C 115.376 148.175 114.604 146.837 114.603 145.389 L 114.603 87.541 C 114.604 86.094 115.376 84.756 116.629 84.031" fill="#7986cb" transform="matrix(0.9999999999999999, 0, 0, 0.9999999999999999, 14.941105842590332, 18.59911346435547)"/>
  <path d="M 299.014 110.381 L 239.156 6.248 C 236.982 2.483 232.966 -0.294 228.618 -0.294 L 108.896 -0.294 C 104.547 -0.294 100.53 2.483 98.356 6.248 L 38.498 110.154 C 36.324 113.92 36.324 118.674 38.498 122.439 L 98.356 225.721 C 100.53 229.486 104.547 231.411 108.896 231.411 L 228.618 231.411 C 232.965 231.411 236.983 229.544 239.156 225.778 L 299.014 122.328 C 301.19 118.564 301.19 114.148 299.014 110.384 M 249.449 160.459 C 249.449 161.989 248.528 163.406 247.2 164.172 L 170.955 208.162 C 169.619 208.928 167.978 208.928 166.641 208.162 L 90.337 164.172 C 89.011 163.406 88.083 161.991 88.083 160.459 L 88.083 72.478 C 88.083 70.946 88.997 69.531 90.324 68.764 L 166.567 24.774 C 167.902 24.008 169.544 24.008 170.878 24.774 L 247.188 68.764 C 248.515 69.531 249.449 70.946 249.449 72.478 L 249.449 160.459 Z" fill="#3f51b5" transform="matrix(0.9999999999999999, 0, 0, 0.9999999999999999, 14.941105842590332, 18.59911346435547)"/>
</svg>