<?xml version="1.0" encoding="utf-8"?>
<svg viewBox="257.793 205.735 256 256" width="256" height="256" xmlns="http://www.w3.org/2000/svg">
  <g transform="matrix(0.9999999999999999, 0, 0, 0.9999999999999999, 0, -7.105427357601002e-15)">
    <rect x="257.793" y="205.735" width="256" height="256" style="fill: rgb(255, 202, 40);" rx="18.883" ry="18.883"/>
    <path d="M 321.088 414.338 L 340.679 402.482 C 344.458 409.183 347.896 414.853 356.143 414.853 C 364.048 414.853 369.032 411.761 369.032 399.733 L 369.032 317.935 L 393.09 317.935 L 393.09 400.073 C 393.09 424.99 378.484 436.332 357.175 436.332 C 337.929 436.332 326.758 426.364 321.088 414.336" fill="#000000"/>
    <path d="M 406.157 411.76 L 425.746 400.419 C 430.902 408.84 437.604 415.026 449.461 415.026 C 459.429 415.026 465.785 410.042 465.785 403.168 C 465.785 394.92 459.256 391.998 448.257 387.188 L 442.245 384.608 C 424.887 377.221 413.373 367.941 413.373 348.351 C 413.373 330.307 427.121 316.559 448.602 316.559 C 463.896 316.559 474.894 321.887 482.798 335.806 L 464.067 347.835 C 459.942 340.446 455.476 337.525 448.602 337.525 C 441.557 337.525 437.088 341.993 437.088 347.835 C 437.088 355.052 441.557 357.974 451.866 362.443 L 457.88 365.02 C 478.33 373.785 489.844 382.719 489.844 402.824 C 489.844 424.478 472.831 436.334 449.977 436.334 C 427.637 436.334 413.202 425.68 406.158 411.76" fill="#000000"/>
  </g>
</svg>